<svg xmlns="http://www.w3.org/2000/svg" xmlns:xlink="http://www.w3.org/1999/xlink" width="2000" zoomAndPan="magnify" viewBox="0 0 1500 749.999995" height="1000" preserveAspectRatio="xMidYMid meet" version="1.0"><defs><g/></defs><g fill="#145da0" fill-opacity="1"><g transform="translate(10.576993, 471.434669)"><g><path d="M 57.640625 0 L 23.296875 0 L 23.296875 -179.296875 L 63.890625 -179.296875 L 135.890625 -63.78125 L 139.078125 -64.265625 L 139.078125 -179.296875 L 173.171875 -179.296875 L 173.171875 0 L 136.875 0 L 60.703125 -123.375 L 57.640625 -122.890625 Z M 57.640625 0 "/></g></g><g transform="translate(207.174358, 471.434669)"><g><path d="M 133.6875 -59.96875 L 46.734375 -59.96875 C 47.710938 -48.195312 51.0625 -39.632812 56.78125 -34.28125 C 62.507812 -28.925781 70.316406 -26.25 80.203125 -26.25 C 87.972656 -26.25 94.269531 -27.695312 99.09375 -30.59375 C 103.914062 -33.5 107.800781 -37.894531 110.75 -43.78125 L 113.328125 -43.78125 L 135.890625 -29.3125 C 131.472656 -19.820312 124.804688 -12.132812 115.890625 -6.25 C 106.984375 -0.363281 95.085938 2.578125 80.203125 2.578125 C 66.222656 2.578125 54.144531 -0.078125 43.96875 -5.390625 C 33.789062 -10.710938 25.941406 -18.625 20.421875 -29.125 C 14.898438 -39.632812 12.140625 -52.453125 12.140625 -67.578125 C 12.140625 -82.953125 15.039062 -95.910156 20.84375 -106.453125 C 26.65625 -117.003906 34.503906 -124.875 44.390625 -130.0625 C 54.285156 -135.25 65.40625 -137.84375 77.75 -137.84375 C 96.882812 -137.84375 111.539062 -132.773438 121.71875 -122.640625 C 131.894531 -112.503906 136.984375 -97.625 136.984375 -78 C 136.984375 -70.882812 136.738281 -65.363281 136.25 -61.4375 Z M 104.484375 -81.921875 C 104.160156 -92.222656 101.769531 -99.722656 97.3125 -104.421875 C 92.863281 -109.128906 86.34375 -111.484375 77.75 -111.484375 C 60.582031 -111.484375 50.488281 -101.628906 47.46875 -81.921875 Z M 104.484375 -81.921875 "/></g></g><g transform="translate(354.223792, 471.434669)"><g><path d="M 61.9375 2.578125 C 46.726562 2.578125 35.503906 -1.570312 28.265625 -9.875 C 21.035156 -18.175781 17.421875 -30.09375 17.421875 -45.625 L 17.421875 -135.28125 L 51.390625 -135.28125 L 51.390625 -49.921875 C 51.390625 -41.660156 53.164062 -35.628906 56.71875 -31.828125 C 60.28125 -28.023438 65.78125 -26.125 73.21875 -26.125 C 82.625 -26.125 89.941406 -29.207031 95.171875 -35.375 C 100.398438 -41.550781 103.015625 -51.265625 103.015625 -64.515625 L 103.015625 -135.28125 L 136.984375 -135.28125 L 136.984375 0 L 104.375 0 L 104.375 -19.875 L 101.796875 -20.484375 C 97.460938 -12.710938 92.164062 -6.925781 85.90625 -3.125 C 79.65625 0.675781 71.664062 2.578125 61.9375 2.578125 Z M 61.9375 2.578125 "/></g></g><g transform="translate(510.716768, 471.434669)"><g><path d="M 19.5 0 L 19.5 -135.28125 L 52.484375 -135.28125 L 52.484375 -115.15625 L 55.0625 -114.671875 C 58.332031 -122.191406 62.625 -127.707031 67.9375 -131.21875 C 73.257812 -134.738281 79.722656 -136.5 87.328125 -136.5 C 95.003906 -136.5 100.847656 -135.191406 104.859375 -132.578125 L 99.09375 -103.265625 L 96.515625 -102.78125 C 94.304688 -103.675781 92.179688 -104.328125 90.140625 -104.734375 C 88.097656 -105.140625 85.601562 -105.34375 82.65625 -105.34375 C 73.175781 -105.34375 65.941406 -102.007812 60.953125 -95.34375 C 55.960938 -88.6875 53.46875 -78 53.46875 -63.28125 L 53.46875 0 Z M 19.5 0 "/></g></g><g transform="translate(616.803307, 471.434669)"><g><path d="M 52.734375 2.578125 C 44.066406 2.578125 36.546875 0.984375 30.171875 -2.203125 C 23.796875 -5.390625 18.890625 -10.070312 15.453125 -16.25 C 12.015625 -22.425781 10.296875 -29.847656 10.296875 -38.515625 C 10.296875 -46.523438 12.015625 -53.25 15.453125 -58.6875 C 18.890625 -64.125 24.203125 -68.578125 31.390625 -72.046875 C 38.585938 -75.523438 47.992188 -78.203125 59.609375 -80.078125 C 67.703125 -81.390625 73.851562 -82.820312 78.0625 -84.375 C 82.269531 -85.925781 85.109375 -87.679688 86.578125 -89.640625 C 88.054688 -91.609375 88.796875 -94.109375 88.796875 -97.140625 C 88.796875 -101.472656 87.28125 -104.78125 84.25 -107.0625 C 81.226562 -109.351562 76.203125 -110.5 69.171875 -110.5 C 61.648438 -110.5 54.492188 -108.820312 47.703125 -105.46875 C 40.921875 -102.113281 35.035156 -97.703125 30.046875 -92.234375 L 27.59375 -92.234375 L 13.375 -113.6875 C 20.238281 -121.289062 28.613281 -127.21875 38.5 -131.46875 C 48.394531 -135.71875 59.191406 -137.84375 70.890625 -137.84375 C 88.796875 -137.84375 101.753906 -134.039062 109.765625 -126.4375 C 117.773438 -118.832031 121.78125 -108.039062 121.78125 -94.0625 L 121.78125 -35.328125 C 121.78125 -29.273438 124.4375 -26.25 129.75 -26.25 C 131.800781 -26.25 133.804688 -26.613281 135.765625 -27.34375 L 137.484375 -26.859375 L 139.9375 -3.1875 C 138.050781 -1.957031 135.429688 -0.953125 132.078125 -0.171875 C 128.734375 0.597656 125.054688 0.984375 121.046875 0.984375 C 112.953125 0.984375 106.632812 -0.566406 102.09375 -3.671875 C 97.5625 -6.785156 94.3125 -11.65625 92.34375 -18.28125 L 89.78125 -18.515625 C 83.15625 -4.453125 70.804688 2.578125 52.734375 2.578125 Z M 63.53125 -22.8125 C 71.375 -22.8125 77.644531 -25.445312 82.34375 -30.71875 C 87.050781 -35.988281 89.40625 -43.328125 89.40625 -52.734375 L 89.40625 -66.46875 L 87.078125 -66.96875 C 85.035156 -65.332031 82.359375 -63.960938 79.046875 -62.859375 C 75.734375 -61.753906 70.96875 -60.671875 64.75 -59.609375 C 57.394531 -58.378906 52.101562 -56.269531 48.875 -53.28125 C 45.644531 -50.300781 44.03125 -46.070312 44.03125 -40.59375 C 44.03125 -34.789062 45.742188 -30.375 49.171875 -27.34375 C 52.609375 -24.320312 57.394531 -22.8125 63.53125 -22.8125 Z M 63.53125 -22.8125 "/></g></g><g transform="translate(759.437577, 471.434669)"><g><path d="M 56.171875 2.578125 C 43.984375 2.578125 34.679688 -0.710938 28.265625 -7.296875 C 21.847656 -13.878906 18.640625 -23.875 18.640625 -37.28125 L 18.640625 -189.609375 L 52.609375 -189.609375 L 52.609375 -38.625 C 52.609375 -30.375 56.046875 -26.25 62.921875 -26.25 C 64.878906 -26.25 66.960938 -26.578125 69.171875 -27.234375 L 70.890625 -26.734375 L 73.953125 -0.609375 C 72.066406 0.367188 69.570312 1.144531 66.46875 1.71875 C 63.363281 2.289062 59.929688 2.578125 56.171875 2.578125 Z M 56.171875 2.578125 "/></g></g></g><g fill="#000000" fill-opacity="1"><g transform="translate(837.193491, 471.434669)"><g><path d="M 106.578125 0 L 63.78125 0 L 3.1875 -179.296875 L 40.84375 -179.296875 L 84.375 -45.625 L 87.4375 -45.625 L 130.375 -179.296875 L 167.046875 -179.296875 Z M 106.578125 0 "/></g></g><g transform="translate(1007.422528, 471.434669)"><g><path d="M 52.734375 2.578125 C 44.066406 2.578125 36.546875 0.984375 30.171875 -2.203125 C 23.796875 -5.390625 18.890625 -10.070312 15.453125 -16.25 C 12.015625 -22.425781 10.296875 -29.847656 10.296875 -38.515625 C 10.296875 -46.523438 12.015625 -53.25 15.453125 -58.6875 C 18.890625 -64.125 24.203125 -68.578125 31.390625 -72.046875 C 38.585938 -75.523438 47.992188 -78.203125 59.609375 -80.078125 C 67.703125 -81.390625 73.851562 -82.820312 78.0625 -84.375 C 82.269531 -85.925781 85.109375 -87.679688 86.578125 -89.640625 C 88.054688 -91.609375 88.796875 -94.109375 88.796875 -97.140625 C 88.796875 -101.472656 87.28125 -104.78125 84.25 -107.0625 C 81.226562 -109.351562 76.203125 -110.5 69.171875 -110.5 C 61.648438 -110.5 54.492188 -108.820312 47.703125 -105.46875 C 40.921875 -102.113281 35.035156 -97.703125 30.046875 -92.234375 L 27.59375 -92.234375 L 13.375 -113.6875 C 20.238281 -121.289062 28.613281 -127.21875 38.5 -131.46875 C 48.394531 -135.71875 59.191406 -137.84375 70.890625 -137.84375 C 88.796875 -137.84375 101.753906 -134.039062 109.765625 -126.4375 C 117.773438 -118.832031 121.78125 -108.039062 121.78125 -94.0625 L 121.78125 -35.328125 C 121.78125 -29.273438 124.4375 -26.25 129.75 -26.25 C 131.800781 -26.25 133.804688 -26.613281 135.765625 -27.34375 L 137.484375 -26.859375 L 139.9375 -3.1875 C 138.050781 -1.957031 135.429688 -0.953125 132.078125 -0.171875 C 128.734375 0.597656 125.054688 0.984375 121.046875 0.984375 C 112.953125 0.984375 106.632812 -0.566406 102.09375 -3.671875 C 97.5625 -6.785156 94.3125 -11.65625 92.34375 -18.28125 L 89.78125 -18.515625 C 83.15625 -4.453125 70.804688 2.578125 52.734375 2.578125 Z M 63.53125 -22.8125 C 71.375 -22.8125 77.644531 -25.445312 82.34375 -30.71875 C 87.050781 -35.988281 89.40625 -43.328125 89.40625 -52.734375 L 89.40625 -66.46875 L 87.078125 -66.96875 C 85.035156 -65.332031 82.359375 -63.960938 79.046875 -62.859375 C 75.734375 -61.753906 70.96875 -60.671875 64.75 -59.609375 C 57.394531 -58.378906 52.101562 -56.269531 48.875 -53.28125 C 45.644531 -50.300781 44.03125 -46.070312 44.03125 -40.59375 C 44.03125 -34.789062 45.742188 -30.375 49.171875 -27.34375 C 52.609375 -24.320312 57.394531 -22.8125 63.53125 -22.8125 Z M 63.53125 -22.8125 "/></g></g><g transform="translate(1150.056798, 471.434669)"><g><path d="M 61.9375 2.578125 C 46.726562 2.578125 35.503906 -1.570312 28.265625 -9.875 C 21.035156 -18.175781 17.421875 -30.09375 17.421875 -45.625 L 17.421875 -135.28125 L 51.390625 -135.28125 L 51.390625 -49.921875 C 51.390625 -41.660156 53.164062 -35.628906 56.71875 -31.828125 C 60.28125 -28.023438 65.78125 -26.125 73.21875 -26.125 C 82.625 -26.125 89.941406 -29.207031 95.171875 -35.375 C 100.398438 -41.550781 103.015625 -51.265625 103.015625 -64.515625 L 103.015625 -135.28125 L 136.984375 -135.28125 L 136.984375 0 L 104.375 0 L 104.375 -19.875 L 101.796875 -20.484375 C 97.460938 -12.710938 92.164062 -6.925781 85.90625 -3.125 C 79.65625 0.675781 71.664062 2.578125 61.9375 2.578125 Z M 61.9375 2.578125 "/></g></g><g transform="translate(1306.549775, 471.434669)"><g><path d="M 56.171875 2.578125 C 43.984375 2.578125 34.679688 -0.710938 28.265625 -7.296875 C 21.847656 -13.878906 18.640625 -23.875 18.640625 -37.28125 L 18.640625 -189.609375 L 52.609375 -189.609375 L 52.609375 -38.625 C 52.609375 -30.375 56.046875 -26.25 62.921875 -26.25 C 64.878906 -26.25 66.960938 -26.578125 69.171875 -27.234375 L 70.890625 -26.734375 L 73.953125 -0.609375 C 72.066406 0.367188 69.570312 1.144531 66.46875 1.71875 C 63.363281 2.289062 59.929688 2.578125 56.171875 2.578125 Z M 56.171875 2.578125 "/></g></g><g transform="translate(1384.305688, 471.434669)"><g><path d="M 93.328125 -32.25 L 102.15625 -7.109375 C 98.476562 -4.085938 93.859375 -1.71875 88.296875 0 C 82.742188 1.71875 76.453125 2.578125 69.421875 2.578125 C 54.785156 2.578125 43.664062 -1.40625 36.0625 -9.375 C 28.457031 -17.351562 24.65625 -28.945312 24.65625 -44.15625 L 24.65625 -108.421875 L 4.046875 -108.421875 L 4.046875 -135.390625 L 24.65625 -135.390625 L 24.65625 -161.765625 L 58.625 -167.28125 L 58.625 -135.390625 L 97.015625 -135.390625 L 97.015625 -108.421875 L 58.625 -108.421875 L 58.625 -46.609375 C 58.625 -39.898438 60.015625 -35.007812 62.796875 -31.9375 C 65.578125 -28.875 69.625 -27.34375 74.9375 -27.34375 C 80.988281 -27.34375 86.257812 -28.976562 90.75 -32.25 Z M 93.328125 -32.25 "/></g></g></g></svg>