<svg xmlns="http://www.w3.org/2000/svg" xmlns:xlink="http://www.w3.org/1999/xlink" width="2000" zoomAndPan="magnify" viewBox="0 0 1500 749.999995" height="1000" preserveAspectRatio="xMidYMid meet" version="1.0"><defs><g/></defs><g fill="#145da0" fill-opacity="1"><g transform="translate(1.536443, 472.499337)"><g><path d="M 58.34375 0 L 23.59375 0 L 23.59375 -181.5 L 64.6875 -181.5 L 137.546875 -64.5625 L 140.78125 -65.046875 L 140.78125 -181.5 L 175.296875 -181.5 L 175.296875 0 L 138.546875 0 L 61.453125 -124.890625 L 58.34375 -124.390625 Z M 58.34375 0 "/></g></g><g transform="translate(200.535805, 472.499337)"><g><path d="M 135.3125 -60.703125 L 47.296875 -60.703125 C 48.296875 -48.785156 51.691406 -40.113281 57.484375 -34.6875 C 63.273438 -29.269531 71.175781 -26.5625 81.1875 -26.5625 C 89.050781 -26.5625 95.425781 -28.03125 100.3125 -30.96875 C 105.195312 -33.90625 109.128906 -38.351562 112.109375 -44.3125 L 114.703125 -44.3125 L 137.546875 -29.671875 C 133.078125 -20.066406 126.332031 -12.285156 117.3125 -6.328125 C 108.289062 -0.367188 96.25 2.609375 81.1875 2.609375 C 67.039062 2.609375 54.8125 -0.078125 44.5 -5.453125 C 34.195312 -10.835938 26.253906 -18.847656 20.671875 -29.484375 C 15.085938 -40.117188 12.296875 -53.09375 12.296875 -68.40625 C 12.296875 -83.96875 15.234375 -97.082031 21.109375 -107.75 C 26.984375 -118.425781 34.925781 -126.394531 44.9375 -131.65625 C 54.957031 -136.914062 66.210938 -139.546875 78.703125 -139.546875 C 98.078125 -139.546875 112.914062 -134.410156 123.21875 -124.140625 C 133.519531 -113.878906 138.671875 -98.816406 138.671875 -78.953125 C 138.671875 -71.753906 138.421875 -66.171875 137.921875 -62.203125 Z M 105.765625 -82.921875 C 105.441406 -93.359375 103.023438 -100.953125 98.515625 -105.703125 C 94.003906 -110.460938 87.398438 -112.84375 78.703125 -112.84375 C 61.328125 -112.84375 51.109375 -102.867188 48.046875 -82.921875 Z M 105.765625 -82.921875 "/></g></g><g transform="translate(349.381867, 472.499337)"><g><path d="M 62.6875 2.609375 C 47.300781 2.609375 35.941406 -1.585938 28.609375 -9.984375 C 21.285156 -18.390625 17.625 -30.457031 17.625 -46.1875 L 17.625 -136.9375 L 52.015625 -136.9375 L 52.015625 -50.53125 C 52.015625 -42.164062 53.8125 -36.054688 57.40625 -32.203125 C 61.007812 -28.359375 66.578125 -26.4375 74.109375 -26.4375 C 83.628906 -26.4375 91.035156 -29.5625 96.328125 -35.8125 C 101.628906 -42.0625 104.28125 -51.890625 104.28125 -65.296875 L 104.28125 -136.9375 L 138.671875 -136.9375 L 138.671875 0 L 105.640625 0 L 105.640625 -20.109375 L 103.046875 -20.734375 C 98.660156 -12.867188 93.300781 -7.007812 86.96875 -3.15625 C 80.632812 0.6875 72.539062 2.609375 62.6875 2.609375 Z M 62.6875 2.609375 "/></g></g><g transform="translate(507.786851, 472.499337)"><g><path d="M 19.734375 0 L 19.734375 -136.9375 L 53.140625 -136.9375 L 53.140625 -116.578125 L 55.734375 -116.078125 C 59.046875 -123.691406 63.390625 -129.273438 68.765625 -132.828125 C 74.148438 -136.390625 80.691406 -138.171875 88.390625 -138.171875 C 96.171875 -138.171875 102.085938 -136.847656 106.140625 -134.203125 L 100.3125 -104.53125 L 97.703125 -104.03125 C 95.460938 -104.945312 93.304688 -105.609375 91.234375 -106.015625 C 89.171875 -106.429688 86.648438 -106.640625 83.671875 -106.640625 C 74.066406 -106.640625 66.738281 -103.265625 61.6875 -96.515625 C 56.644531 -89.773438 54.125 -78.957031 54.125 -64.0625 L 54.125 0 Z M 19.734375 0 "/></g></g><g transform="translate(615.169539, 472.499337)"><g><path d="M 53.375 2.609375 C 44.601562 2.609375 36.988281 0.992188 30.53125 -2.234375 C 24.082031 -5.460938 19.117188 -10.203125 15.640625 -16.453125 C 12.160156 -22.703125 10.421875 -30.210938 10.421875 -38.984375 C 10.421875 -47.085938 12.160156 -53.890625 15.640625 -59.390625 C 19.117188 -64.898438 24.5 -69.414062 31.78125 -72.9375 C 39.0625 -76.457031 48.578125 -79.164062 60.328125 -81.0625 C 68.523438 -82.382812 74.753906 -83.832031 79.015625 -85.40625 C 83.273438 -86.976562 86.148438 -88.757812 87.640625 -90.75 C 89.128906 -92.738281 89.875 -95.265625 89.875 -98.328125 C 89.875 -102.710938 88.34375 -106.0625 85.28125 -108.375 C 82.21875 -110.695312 77.128906 -111.859375 70.015625 -111.859375 C 62.398438 -111.859375 55.15625 -110.160156 48.28125 -106.765625 C 41.414062 -103.367188 35.460938 -98.898438 30.421875 -93.359375 L 27.9375 -93.359375 L 13.53125 -115.078125 C 20.476562 -122.773438 28.957031 -128.773438 38.96875 -133.078125 C 48.988281 -137.390625 59.914062 -139.546875 71.75 -139.546875 C 89.875 -139.546875 102.992188 -135.695312 111.109375 -128 C 119.222656 -120.300781 123.28125 -109.375 123.28125 -95.21875 L 123.28125 -35.75 C 123.28125 -29.625 125.96875 -26.5625 131.34375 -26.5625 C 133.414062 -26.5625 135.441406 -26.9375 137.421875 -27.6875 L 139.171875 -27.1875 L 141.65625 -3.234375 C 139.75 -1.984375 137.097656 -0.960938 133.703125 -0.171875 C 130.304688 0.609375 126.582031 1 122.53125 1 C 114.332031 1 107.9375 -0.570312 103.34375 -3.71875 C 98.757812 -6.863281 95.472656 -11.789062 93.484375 -18.5 L 90.875 -18.75 C 84.164062 -4.507812 71.664062 2.609375 53.375 2.609375 Z M 64.3125 -23.09375 C 72.25 -23.09375 78.597656 -25.757812 83.359375 -31.09375 C 88.117188 -36.4375 90.5 -43.863281 90.5 -53.375 L 90.5 -67.28125 L 88.140625 -67.78125 C 86.078125 -66.125 83.367188 -64.738281 80.015625 -63.625 C 76.660156 -62.507812 71.835938 -61.410156 65.546875 -60.328125 C 58.097656 -59.085938 52.738281 -56.957031 49.46875 -53.9375 C 46.195312 -50.914062 44.5625 -46.632812 44.5625 -41.09375 C 44.5625 -35.21875 46.300781 -30.75 49.78125 -27.6875 C 53.257812 -24.625 58.101562 -23.09375 64.3125 -23.09375 Z M 64.3125 -23.09375 "/></g></g><g transform="translate(759.546493, 472.499337)"><g><path d="M 56.859375 2.609375 C 44.523438 2.609375 35.109375 -0.71875 28.609375 -7.375 C 22.117188 -14.039062 18.875 -24.160156 18.875 -37.734375 L 18.875 -191.921875 L 53.265625 -191.921875 L 53.265625 -39.109375 C 53.265625 -30.742188 56.738281 -26.5625 63.6875 -26.5625 C 65.675781 -26.5625 67.785156 -26.894531 70.015625 -27.5625 L 71.75 -27.0625 L 74.859375 -0.625 C 72.953125 0.375 70.425781 1.160156 67.28125 1.734375 C 64.132812 2.316406 60.660156 2.609375 56.859375 2.609375 Z M 56.859375 2.609375 "/></g></g></g><g fill="#ffffff" fill-opacity="1"><g transform="translate(838.255152, 472.499337)"><g><path d="M 107.875 0 L 64.5625 0 L 3.234375 -181.5 L 41.34375 -181.5 L 85.40625 -46.1875 L 88.515625 -46.1875 L 131.96875 -181.5 L 169.09375 -181.5 Z M 107.875 0 "/></g></g><g transform="translate(1010.564022, 472.499337)"><g><path d="M 53.375 2.609375 C 44.601562 2.609375 36.988281 0.992188 30.53125 -2.234375 C 24.082031 -5.460938 19.117188 -10.203125 15.640625 -16.453125 C 12.160156 -22.703125 10.421875 -30.210938 10.421875 -38.984375 C 10.421875 -47.085938 12.160156 -53.890625 15.640625 -59.390625 C 19.117188 -64.898438 24.5 -69.414062 31.78125 -72.9375 C 39.0625 -76.457031 48.578125 -79.164062 60.328125 -81.0625 C 68.523438 -82.382812 74.753906 -83.832031 79.015625 -85.40625 C 83.273438 -86.976562 86.148438 -88.757812 87.640625 -90.75 C 89.128906 -92.738281 89.875 -95.265625 89.875 -98.328125 C 89.875 -102.710938 88.34375 -106.0625 85.28125 -108.375 C 82.21875 -110.695312 77.128906 -111.859375 70.015625 -111.859375 C 62.398438 -111.859375 55.15625 -110.160156 48.28125 -106.765625 C 41.414062 -103.367188 35.460938 -98.898438 30.421875 -93.359375 L 27.9375 -93.359375 L 13.53125 -115.078125 C 20.476562 -122.773438 28.957031 -128.773438 38.96875 -133.078125 C 48.988281 -137.390625 59.914062 -139.546875 71.75 -139.546875 C 89.875 -139.546875 102.992188 -135.695312 111.109375 -128 C 119.222656 -120.300781 123.28125 -109.375 123.28125 -95.21875 L 123.28125 -35.75 C 123.28125 -29.625 125.96875 -26.5625 131.34375 -26.5625 C 133.414062 -26.5625 135.441406 -26.9375 137.421875 -27.6875 L 139.171875 -27.1875 L 141.65625 -3.234375 C 139.75 -1.984375 137.097656 -0.960938 133.703125 -0.171875 C 130.304688 0.609375 126.582031 1 122.53125 1 C 114.332031 1 107.9375 -0.570312 103.34375 -3.71875 C 98.757812 -6.863281 95.472656 -11.789062 93.484375 -18.5 L 90.875 -18.75 C 84.164062 -4.507812 71.664062 2.609375 53.375 2.609375 Z M 64.3125 -23.09375 C 72.25 -23.09375 78.597656 -25.757812 83.359375 -31.09375 C 88.117188 -36.4375 90.5 -43.863281 90.5 -53.375 L 90.5 -67.28125 L 88.140625 -67.78125 C 86.078125 -66.125 83.367188 -64.738281 80.015625 -63.625 C 76.660156 -62.507812 71.835938 -61.410156 65.546875 -60.328125 C 58.097656 -59.085938 52.738281 -56.957031 49.46875 -53.9375 C 46.195312 -50.914062 44.5625 -46.632812 44.5625 -41.09375 C 44.5625 -35.21875 46.300781 -30.75 49.78125 -27.6875 C 53.257812 -24.625 58.101562 -23.09375 64.3125 -23.09375 Z M 64.3125 -23.09375 "/></g></g><g transform="translate(1154.940976, 472.499337)"><g><path d="M 62.6875 2.609375 C 47.300781 2.609375 35.941406 -1.585938 28.609375 -9.984375 C 21.285156 -18.390625 17.625 -30.457031 17.625 -46.1875 L 17.625 -136.9375 L 52.015625 -136.9375 L 52.015625 -50.53125 C 52.015625 -42.164062 53.8125 -36.054688 57.40625 -32.203125 C 61.007812 -28.359375 66.578125 -26.4375 74.109375 -26.4375 C 83.628906 -26.4375 91.035156 -29.5625 96.328125 -35.8125 C 101.628906 -42.0625 104.28125 -51.890625 104.28125 -65.296875 L 104.28125 -136.9375 L 138.671875 -136.9375 L 138.671875 0 L 105.640625 0 L 105.640625 -20.109375 L 103.046875 -20.734375 C 98.660156 -12.867188 93.300781 -7.007812 86.96875 -3.15625 C 80.632812 0.6875 72.539062 2.609375 62.6875 2.609375 Z M 62.6875 2.609375 "/></g></g><g transform="translate(1313.34596, 472.499337)"><g><path d="M 56.859375 2.609375 C 44.523438 2.609375 35.109375 -0.71875 28.609375 -7.375 C 22.117188 -14.039062 18.875 -24.160156 18.875 -37.734375 L 18.875 -191.921875 L 53.265625 -191.921875 L 53.265625 -39.109375 C 53.265625 -30.742188 56.738281 -26.5625 63.6875 -26.5625 C 65.675781 -26.5625 67.785156 -26.894531 70.015625 -27.5625 L 71.75 -27.0625 L 74.859375 -0.625 C 72.953125 0.375 70.425781 1.160156 67.28125 1.734375 C 64.132812 2.316406 60.660156 2.609375 56.859375 2.609375 Z M 56.859375 2.609375 "/></g></g><g transform="translate(1392.051884, 472.499337)"><g><path d="M 94.46875 -32.65625 L 103.40625 -7.203125 C 99.6875 -4.140625 95.007812 -1.738281 89.375 0 C 83.75 1.738281 77.378906 2.609375 70.265625 2.609375 C 55.453125 2.609375 44.195312 -1.421875 36.5 -9.484375 C 28.800781 -17.554688 24.953125 -29.289062 24.953125 -44.6875 L 24.953125 -109.75 L 4.09375 -109.75 L 4.09375 -137.0625 L 24.953125 -137.0625 L 24.953125 -163.75 L 59.34375 -169.328125 L 59.34375 -137.0625 L 98.203125 -137.0625 L 98.203125 -109.75 L 59.34375 -109.75 L 59.34375 -47.171875 C 59.34375 -40.390625 60.75 -35.445312 63.5625 -32.34375 C 66.375 -29.238281 70.472656 -27.6875 75.859375 -27.6875 C 81.984375 -27.6875 87.320312 -29.34375 91.875 -32.65625 Z M 94.46875 -32.65625 "/></g></g></g></svg>